<?xml version="1.0" encoding="utf-8"?>
<!-- Generator: Adobe Illustrator 24.1.0, SVG Export Plug-In . SVG Version: 6.00 Build 0)  -->
<svg version="1.1" id="Capa_1" xmlns="http://www.w3.org/2000/svg" xmlns:xlink="http://www.w3.org/1999/xlink" x="0px" y="0px"
	 viewBox="0 0 571.7 574.6" style="enable-background:new 0 0 571.7 574.6;" xml:space="preserve">
<style type="text/css">
	.st0{fill:#FFFFFF;}
	.st1{fill:#72B5DF;}
</style>
<g>
	
		<image style="overflow:visible;" width="2384" height="2396" xlink:href="C6F48B74.png"  transform="matrix(0.24 0 0 0.24 0 -0.48)">
	</image>
	<g>
		<g id="Capa_2_2_">
			
				<image style="overflow:visible;opacity:0.25;enable-background:new    ;" width="2082" height="2094" xlink:href="C6F48B75.png"  transform="matrix(0.24 0 0 0.24 36.66 35.22)">
			</image>
			<path class="st0" d="M286.8,75.2C358.1,62,430.3,93,469.9,153.7l28.8,12.4C466.6,99.4,398.4,53.2,319.5,53.2
				c-20.9,0-41.6,3.3-61.4,9.7L286.8,75.2z"/>
			<path class="st0" d="M303.4,430.8c-91.6-8.2-163.6-85.3-163.6-178.9c0-13.7,1.6-27.3,4.7-40.7l-16.2-13.6
				c-5,17.7-7.6,35.9-7.6,54.3c0,106.9,84.8,194.3,190.6,198.5L303.4,430.8z"/>
			<path class="st0" d="M208.8,87.1c-22.4,15.1-41.5,34.5-56.2,57.1l19.1,5.7c13.3-19.2,30.1-35.6,49.6-48.4
				C217.1,96.7,213.1,91.7,208.8,87.1z"/>
			<path class="st0" d="M497.5,227.3c8.6,62-15.7,123.9-64.2,163.5l-12.5,32c78.4-46.4,115.2-140.1,89.2-227.4L497.5,227.3z"/>
			<polygon class="st0" points="358.9,519.7 489.4,187.2 203.3,64.6 346.3,250.1 			"/>
			<polygon class="st0" points="331.1,255.9 282.8,194.1 54.7,125.8 257,296.7 344.7,511.8 			"/>
			<path class="st1" d="M292,238h71.9v21.4H292V238z M339.1,214.4V283h-22.3v-68.6H339.1z"/>
		</g>
	</g>
</g>
</svg>
