<svg id="Capa_1" data-name="Capa 1" xmlns="http://www.w3.org/2000/svg" viewBox="0 0 660.05 170.22"><defs><style>.cls-1{fill:#003b71;}.cls-2{fill:#72b5df;}</style></defs><polygon class="cls-1" points="163.84 144.53 193.32 64.54 230.52 114.57 267.94 64.44 297.41 144.53 278.78 144.53 262.32 105.27 230.53 144.5 199 105.05 183.34 144.53 163.84 144.53"/><polygon class="cls-1" points="490.48 144.5 490.48 66.77 565.02 66.77 565.02 83.18 509.1 83.18 509.1 96.25 554.91 96.25 554.91 113.16 509.14 113.16 509.14 127.83 564.98 127.83 564.98 144.5 490.48 144.5"/><polygon class="cls-1" points="426.67 83.38 396.08 83.38 396.08 66.73 475.8 66.73 475.8 83.28 445.08 83.28 445.08 144.46 426.67 144.46 426.67 83.38"/><path class="cls-1" d="M635.78,137.69a77.44,77.44,0,0,1-10.16-.55,34.23,34.23,0,0,1-17.26-6.58A20.64,20.64,0,0,1,602,105.77c2.88-6.59,8-10.24,14-12.36a50.88,50.88,0,0,1,18-3h31.76V73.84H633.82v0a95.36,95.36,0,0,0-10,.5c-10,1.06-19.47,3.93-27.86,10.42a35,35,0,0,0-14,25.36c-1.31,14.4,3.88,25.54,14.43,33.57,7.33,5.57,15.58,8.28,24.23,9.61a85.1,85.1,0,0,0,13.21,1v0h32.05V137.69Z" transform="translate(-5.82 -9.84)"/><path class="cls-1" d="M360.94,74.92,312,154.33h20.6l6.93-12.21h42.59l7,12.21h20.76ZM349.6,125.35,361,106.12c3.81,6.5,7.47,12.76,11.27,19.23Z" transform="translate(-5.82 -9.84)"/><polygon class="cls-2" points="113.76 170.22 162.56 45.88 55.58 0 109.07 69.41 113.76 170.22"/><polygon class="cls-2" points="103.36 71.56 85.3 48.45 0 22.89 75.67 86.81 108.47 167.25 103.36 71.56"/></svg>