<?xml version="1.0" encoding="utf-8"?>
<!-- Generator: Adobe Illustrator 24.1.0, SVG Export Plug-In . SVG Version: 6.00 Build 0)  -->
<svg version="1.1" id="Capa_1" xmlns="http://www.w3.org/2000/svg" xmlns:xlink="http://www.w3.org/1999/xlink" x="0px" y="0px"
	 viewBox="0 0 1075 278" style="enable-background:new 0 0 1075 278;" xml:space="preserve">
<style type="text/css">
	.st0{fill:#FFFFFF;}
	.st1{fill:#72B5DF;}
</style>
<g>
	<polygon class="st0" points="295.1,220 334.1,114 383.4,180.3 433,113.9 472,220 447.4,220 425.6,168 383.4,219.9 341.7,167.7 
		320.9,220 	"/>
	<polygon class="st0" points="727.8,219.9 727.8,117 826.5,117 826.5,138.7 752.5,138.7 752.5,156 813.2,156 813.2,178.4 
		752.5,178.4 752.5,197.9 826.5,197.9 826.5,219.9 	"/>
	<polygon class="st0" points="643.3,139 602.8,139 602.8,116.9 708.4,116.9 708.4,138.8 667.7,138.8 667.7,219.9 643.3,219.9 	"/>
	<path class="st0" d="M912.6,197.9c-4.4,0-8.9-0.2-13.5-0.7c-8.2-1-16-3.4-22.9-8.7c-10-7.6-13.6-21.1-8.4-32.8
		c3.8-8.7,10.6-13.6,18.5-16.4c8.2-2.9,15.7-4.1,23.9-4v0l42.1,0l0-21.9l-42.3,0v0.1c-4.4,0-8.8,0.2-13.2,0.7
		c-13.2,1.4-25.8,5.2-36.9,13.8c-10.5,8.1-17.3,19.2-18.6,33.6c-1.7,19.1,5.1,33.8,19.1,44.5c9.7,7.4,20.6,11,32.1,12.7
		c5.8,0.9,11.7,1.3,17.5,1.3v0h42.5v-22H912.6z"/>
	<path class="st0" d="M548.5,114.7l-64.8,105.2h27.3l9.2-16.2h56.4l9.3,16.2h27.5L548.5,114.7z M533.5,181.5
		c5.1-8.6,10-16.9,15.1-25.5c5,8.6,9.9,16.9,14.9,25.5H533.5z"/>
	<polygon class="st1" points="228.8,254 293.4,89.3 151.7,28.5 222.5,120.5 	"/>
	<polygon class="st1" points="215,123.3 191.1,92.7 78.1,58.8 178.3,143.5 221.7,250.1 	"/>
</g>
</svg>
